<svg xmlns="http://www.w3.org/2000/svg" xmlns:xlink="http://www.w3.org/1999/xlink" width="256" zoomAndPan="magnify" viewBox="0 0 192 191.999996" height="256" preserveAspectRatio="xMidYMid meet" version="1.0"><defs><g/><clipPath id="d00daed2ff"><path d="M 155 79 L 171 79 L 171 96 L 155 96 Z M 155 79 " clip-rule="nonzero"/></clipPath><clipPath id="fa4b5e8033"><path d="M 151.867188 81.996094 L 162.933594 71.765625 L 178.277344 88.367188 L 167.210938 98.59375 Z M 151.867188 81.996094 " clip-rule="nonzero"/></clipPath><clipPath id="65b02eb70a"><path d="M 151.867188 81.996094 L 162.933594 71.765625 L 178.277344 88.367188 L 167.210938 98.59375 Z M 151.867188 81.996094 " clip-rule="nonzero"/></clipPath><clipPath id="40612d2f5b"><path d="M 162 72 L 179 72 L 179 88 L 162 88 Z M 162 72 " clip-rule="nonzero"/></clipPath><clipPath id="7411e49c30"><path d="M 159.707031 74.75 L 170.773438 64.519531 L 186.117188 81.121094 L 175.050781 91.347656 Z M 159.707031 74.75 " clip-rule="nonzero"/></clipPath><clipPath id="af6aa0653c"><path d="M 159.707031 74.75 L 170.773438 64.519531 L 186.117188 81.121094 L 175.050781 91.347656 Z M 159.707031 74.75 " clip-rule="nonzero"/></clipPath></defs><rect x="-19.2" width="230.4" fill="#ffffff" y="-19.2" height="230.399995" fill-opacity="1"/><rect x="-19.2" width="230.4" fill="#ffffff" y="-19.2" height="230.399995" fill-opacity="1"/><g clip-path="url(#d00daed2ff)"><g clip-path="url(#fa4b5e8033)"><g clip-path="url(#65b02eb70a)"><path fill="#18cb96" d="M 170.378906 80.195312 L 157.144531 79.605469 C 154.585938 79.492188 154.15625 84.472656 157.183594 84.554688 L 165.421875 84.777344 L 164.792969 93.0625 C 164.597656 95.585938 169.519531 95.851562 169.660156 93.289062 Z M 170.378906 80.195312 " fill-opacity="1" fill-rule="nonzero"/></g></g></g><g clip-path="url(#40612d2f5b)"><g clip-path="url(#7411e49c30)"><g clip-path="url(#af6aa0653c)"><path fill="#18cb96" d="M 178.21875 72.945312 L 164.984375 72.359375 C 162.429688 72.246094 161.996094 77.226562 165.027344 77.308594 L 173.261719 77.53125 L 172.632812 85.816406 C 172.441406 88.339844 177.363281 88.605469 177.503906 86.042969 Z M 178.21875 72.945312 " fill-opacity="1" fill-rule="nonzero"/></g></g></g><g fill="#373643" fill-opacity="1"><g transform="translate(38.598655, 108.742493)"><g><path d="M 10.84375 -3.75 C 11.445312 -4.082031 11.988281 -4.195312 12.46875 -4.09375 C 12.957031 -3.988281 13.351562 -3.757812 13.65625 -3.40625 C 13.957031 -3.050781 14.109375 -2.640625 14.109375 -2.171875 C 14.109375 -1.828125 14.003906 -1.484375 13.796875 -1.140625 C 13.585938 -0.796875 13.257812 -0.507812 12.8125 -0.28125 C 12.226562 0.0390625 11.703125 0.234375 11.234375 0.296875 C 10.765625 0.359375 10.210938 0.390625 9.578125 0.390625 C 7.867188 0.390625 6.550781 0.0351562 5.625 -0.671875 C 4.707031 -1.378906 4.078125 -2.296875 3.734375 -3.421875 C 3.398438 -4.554688 3.234375 -5.753906 3.234375 -7.015625 L 3.234375 -16.328125 L 1.734375 -16.328125 C 0.992188 -16.328125 0.445312 -16.519531 0.09375 -16.90625 C -0.257812 -17.300781 -0.4375 -17.722656 -0.4375 -18.171875 C -0.4375 -18.648438 -0.253906 -19.082031 0.109375 -19.46875 C 0.484375 -19.863281 1.023438 -20.0625 1.734375 -20.0625 L 3.234375 -20.0625 L 3.234375 -23.453125 C 3.234375 -24.140625 3.457031 -24.648438 3.90625 -24.984375 C 4.351562 -25.328125 4.863281 -25.5 5.4375 -25.5 C 5.988281 -25.5 6.5 -25.328125 6.96875 -24.984375 C 7.445312 -24.648438 7.6875 -24.140625 7.6875 -23.453125 L 7.6875 -20.0625 L 10.765625 -20.0625 C 11.441406 -20.0625 11.960938 -19.863281 12.328125 -19.46875 C 12.703125 -19.082031 12.890625 -18.648438 12.890625 -18.171875 C 12.890625 -17.703125 12.703125 -17.273438 12.328125 -16.890625 C 11.960938 -16.515625 11.441406 -16.328125 10.765625 -16.328125 L 7.6875 -16.328125 L 7.6875 -7.015625 C 7.6875 -6.441406 7.722656 -5.882812 7.796875 -5.34375 C 7.878906 -4.800781 8.054688 -4.351562 8.328125 -4 C 8.609375 -3.644531 9.023438 -3.46875 9.578125 -3.46875 C 9.785156 -3.46875 10.015625 -3.5 10.265625 -3.5625 C 10.515625 -3.632812 10.707031 -3.695312 10.84375 -3.75 Z M 10.84375 -3.75 "/></g></g></g><g fill="#373643" fill-opacity="1"><g transform="translate(52.278272, 108.742493)"><g><path d="M 18.328125 -20.0625 C 19.015625 -20.0625 19.5625 -19.867188 19.96875 -19.484375 C 20.375 -19.109375 20.578125 -18.617188 20.578125 -18.015625 L 20.578125 -2.046875 C 20.578125 -1.441406 20.375 -0.945312 19.96875 -0.5625 C 19.5625 -0.1875 19.015625 0 18.328125 0 C 17.671875 0 17.15625 -0.148438 16.78125 -0.453125 C 16.414062 -0.753906 16.195312 -1.15625 16.125 -1.65625 C 15.226562 -0.945312 14.226562 -0.425781 13.125 -0.09375 C 12.019531 0.226562 10.96875 0.390625 9.96875 0.390625 C 8.082031 0.390625 6.445312 -0.0390625 5.0625 -0.90625 C 3.6875 -1.769531 2.628906 -2.988281 1.890625 -4.5625 C 1.148438 -6.144531 0.78125 -7.988281 0.78125 -10.09375 C 0.78125 -12.144531 1.1875 -13.941406 2 -15.484375 C 2.820312 -17.035156 3.960938 -18.25 5.421875 -19.125 C 6.878906 -20.007812 8.566406 -20.453125 10.484375 -20.453125 C 11.328125 -20.453125 12.257812 -20.296875 13.28125 -19.984375 C 14.3125 -19.671875 15.257812 -19.171875 16.125 -18.484375 C 16.226562 -18.960938 16.460938 -19.34375 16.828125 -19.625 C 17.203125 -19.914062 17.703125 -20.0625 18.328125 -20.0625 Z M 10.453125 -3.59375 C 11.609375 -3.59375 12.722656 -3.847656 13.796875 -4.359375 C 14.867188 -4.867188 15.628906 -5.625 16.078125 -6.625 L 16.078125 -13.4375 C 15.578125 -14.414062 14.828125 -15.164062 13.828125 -15.6875 C 12.835938 -16.21875 11.828125 -16.484375 10.796875 -16.484375 C 9.140625 -16.484375 7.804688 -15.875 6.796875 -14.65625 C 5.785156 -13.445312 5.28125 -11.910156 5.28125 -10.046875 C 5.28125 -8.109375 5.753906 -6.546875 6.703125 -5.359375 C 7.648438 -4.179688 8.898438 -3.59375 10.453125 -3.59375 Z M 10.453125 -3.59375 "/></g></g></g><g fill="#373643" fill-opacity="1"><g transform="translate(75.064719, 108.742493)"><g><path d="M 0.515625 -4.6875 C 0.328125 -5.425781 0.492188 -6.019531 1.015625 -6.46875 C 1.546875 -6.914062 2.128906 -7.140625 2.765625 -7.140625 C 3.234375 -7.140625 3.648438 -7 4.015625 -6.71875 C 4.390625 -6.445312 4.664062 -6.035156 4.84375 -5.484375 C 5 -5.003906 5.335938 -4.613281 5.859375 -4.3125 C 6.390625 -4.007812 7.003906 -3.789062 7.703125 -3.65625 C 8.398438 -3.53125 9.101562 -3.46875 9.8125 -3.46875 C 11.226562 -3.46875 12.367188 -3.722656 13.234375 -4.234375 C 14.109375 -4.742188 14.546875 -5.394531 14.546875 -6.1875 C 14.546875 -6.738281 14.316406 -7.144531 13.859375 -7.40625 C 13.398438 -7.675781 12.796875 -7.863281 12.046875 -7.96875 C 11.296875 -8.070312 10.5 -8.148438 9.65625 -8.203125 C 8.550781 -8.304688 7.46875 -8.4375 6.40625 -8.59375 C 5.34375 -8.75 4.375 -9.015625 3.5 -9.390625 C 2.632812 -9.773438 1.9375 -10.34375 1.40625 -11.09375 C 0.882812 -11.84375 0.625 -12.863281 0.625 -14.15625 C 0.625 -15.414062 0.992188 -16.519531 1.734375 -17.46875 C 2.472656 -18.414062 3.507812 -19.148438 4.84375 -19.671875 C 6.1875 -20.191406 7.738281 -20.453125 9.5 -20.453125 C 10.519531 -20.453125 11.625 -20.351562 12.8125 -20.15625 C 14 -19.96875 15.097656 -19.570312 16.109375 -18.96875 C 17.117188 -18.363281 17.859375 -17.425781 18.328125 -16.15625 C 18.515625 -15.632812 18.5 -15.171875 18.28125 -14.765625 C 18.070312 -14.359375 17.765625 -14.046875 17.359375 -13.828125 C 16.953125 -13.617188 16.539062 -13.515625 16.125 -13.515625 C 15.644531 -13.515625 15.253906 -13.609375 14.953125 -13.796875 C 14.648438 -13.984375 14.394531 -14.300781 14.1875 -14.75 C 13.957031 -15.300781 13.554688 -15.707031 12.984375 -15.96875 C 12.421875 -16.226562 11.816406 -16.390625 11.171875 -16.453125 C 10.523438 -16.523438 9.96875 -16.5625 9.5 -16.5625 C 8.1875 -16.5625 7.128906 -16.335938 6.328125 -15.890625 C 5.523438 -15.441406 5.125 -14.847656 5.125 -14.109375 C 5.125 -13.484375 5.332031 -13.054688 5.75 -12.828125 C 6.175781 -12.609375 6.75 -12.476562 7.46875 -12.4375 C 8.1875 -12.394531 8.992188 -12.320312 9.890625 -12.21875 C 10.992188 -12.09375 12.082031 -11.945312 13.15625 -11.78125 C 14.238281 -11.625 15.226562 -11.351562 16.125 -10.96875 C 17.019531 -10.59375 17.726562 -10.03125 18.25 -9.28125 C 18.78125 -8.53125 19.046875 -7.5 19.046875 -6.1875 C 19.046875 -4.894531 18.65625 -3.75 17.875 -2.75 C 17.101562 -1.757812 16.023438 -0.988281 14.640625 -0.4375 C 13.265625 0.113281 11.65625 0.390625 9.8125 0.390625 C 9 0.390625 8.113281 0.332031 7.15625 0.21875 C 6.195312 0.101562 5.265625 -0.128906 4.359375 -0.484375 C 3.453125 -0.847656 2.65625 -1.363281 1.96875 -2.03125 C 1.289062 -2.695312 0.804688 -3.582031 0.515625 -4.6875 Z M 0.515625 -4.6875 "/></g></g></g><g fill="#373643" fill-opacity="1"><g transform="translate(94.657862, 108.742493)"><g><path d="M 17.65625 -3.390625 C 18.101562 -2.835938 18.28125 -2.304688 18.1875 -1.796875 C 18.101562 -1.285156 17.851562 -0.859375 17.4375 -0.515625 C 17.03125 -0.171875 16.566406 0 16.046875 0 C 15.335938 0 14.734375 -0.289062 14.234375 -0.875 L 7.5625 -8.28125 L 6.421875 -7.25 L 6.421875 -2.015625 C 6.421875 -1.359375 6.175781 -0.859375 5.6875 -0.515625 C 5.207031 -0.171875 4.691406 0 4.140625 0 C 3.554688 0 3.039062 -0.171875 2.59375 -0.515625 C 2.15625 -0.859375 1.9375 -1.359375 1.9375 -2.015625 L 1.9375 -23.5 C 1.9375 -24.175781 2.15625 -24.675781 2.59375 -25 C 3.039062 -25.332031 3.566406 -25.5 4.171875 -25.5 C 4.773438 -25.5 5.300781 -25.332031 5.75 -25 C 6.195312 -24.675781 6.421875 -24.175781 6.421875 -23.5 L 6.421875 -12.609375 L 13.71875 -19.4375 C 14.21875 -19.851562 14.769531 -20.0625 15.375 -20.0625 C 16.007812 -20.0625 16.546875 -19.859375 16.984375 -19.453125 C 17.429688 -19.046875 17.65625 -18.582031 17.65625 -18.0625 C 17.65625 -17.5625 17.378906 -17.046875 16.828125 -16.515625 L 10.640625 -11.03125 Z M 17.65625 -3.390625 "/></g></g></g><g fill="#373643" fill-opacity="1"><g transform="translate(112.595217, 108.742493)"><g><path d="M 5.90625 -23.015625 C 5.90625 -22.359375 5.660156 -21.863281 5.171875 -21.53125 C 4.691406 -21.207031 4.175781 -21.046875 3.625 -21.046875 C 3.050781 -21.046875 2.523438 -21.207031 2.046875 -21.53125 C 1.578125 -21.863281 1.34375 -22.359375 1.34375 -23.015625 L 1.34375 -23.53125 C 1.34375 -24.21875 1.578125 -24.71875 2.046875 -25.03125 C 2.523438 -25.34375 3.050781 -25.5 3.625 -25.5 C 4.175781 -25.5 4.691406 -25.34375 5.171875 -25.03125 C 5.660156 -24.71875 5.90625 -24.21875 5.90625 -23.53125 Z M 1.375 -18.140625 C 1.375 -18.765625 1.617188 -19.238281 2.109375 -19.5625 C 2.597656 -19.894531 3.101562 -20.0625 3.625 -20.0625 C 4.175781 -20.0625 4.6875 -19.894531 5.15625 -19.5625 C 5.632812 -19.238281 5.875 -18.773438 5.875 -18.171875 L 5.875 -1.9375 C 5.875 -1.28125 5.632812 -0.789062 5.15625 -0.46875 C 4.6875 -0.15625 4.175781 0 3.625 0 C 3.101562 0 2.597656 -0.15625 2.109375 -0.46875 C 1.617188 -0.789062 1.375 -1.28125 1.375 -1.9375 Z M 1.375 -18.140625 "/></g></g></g><g fill="#373643" fill-opacity="1"><g transform="translate(119.060323, 108.742493)"><g><path d="M 9.0625 -22.234375 C 8.59375 -22.234375 8.160156 -22.070312 7.765625 -21.75 C 7.367188 -21.4375 7.171875 -20.953125 7.171875 -20.296875 L 7.171875 -19.625 L 9.78125 -19.625 C 10.4375 -19.625 10.914062 -19.425781 11.21875 -19.03125 C 11.519531 -18.644531 11.671875 -18.226562 11.671875 -17.78125 C 11.671875 -17.300781 11.519531 -16.867188 11.21875 -16.484375 C 10.914062 -16.109375 10.4375 -15.921875 9.78125 -15.921875 L 7.171875 -15.921875 L 7.171875 -1.96875 C 7.171875 -1.3125 6.929688 -0.816406 6.453125 -0.484375 C 5.984375 -0.160156 5.472656 0 4.921875 0 C 4.347656 0 3.832031 -0.160156 3.375 -0.484375 C 2.914062 -0.816406 2.6875 -1.3125 2.6875 -1.96875 L 2.6875 -15.921875 L 1.65625 -15.921875 C 1 -15.921875 0.5 -16.109375 0.15625 -16.484375 C -0.1875 -16.867188 -0.359375 -17.300781 -0.359375 -17.78125 C -0.359375 -18.226562 -0.1875 -18.644531 0.15625 -19.03125 C 0.5 -19.425781 1 -19.625 1.65625 -19.625 L 2.6875 -19.625 L 2.6875 -20.296875 C 2.6875 -21.535156 2.976562 -22.582031 3.5625 -23.4375 C 4.15625 -24.289062 4.929688 -24.941406 5.890625 -25.390625 C 6.847656 -25.835938 7.851562 -26.0625 8.90625 -26.0625 C 9.664062 -26.0625 10.414062 -25.953125 11.15625 -25.734375 C 11.894531 -25.523438 12.566406 -25.160156 13.171875 -24.640625 C 13.671875 -24.191406 13.910156 -23.703125 13.890625 -23.171875 C 13.878906 -22.648438 13.695312 -22.191406 13.34375 -21.796875 C 12.988281 -21.398438 12.546875 -21.160156 12.015625 -21.078125 C 11.492188 -21.003906 10.972656 -21.207031 10.453125 -21.6875 C 10.078125 -22.050781 9.613281 -22.234375 9.0625 -22.234375 Z M 9.0625 -22.234375 "/></g></g></g><g fill="#373643" fill-opacity="1"><g transform="translate(131.360112, 108.742493)"><g><path d="M 18.375 -20.0625 C 19.050781 -20.0625 19.632812 -19.765625 20.125 -19.171875 C 20.613281 -18.585938 20.710938 -17.898438 20.421875 -17.109375 L 8.90625 5.484375 C 8.644531 5.984375 8.3125 6.375 7.90625 6.65625 C 7.5 6.945312 7.070312 7.09375 6.625 7.09375 C 6.175781 7.09375 5.757812 6.941406 5.375 6.640625 C 5 6.335938 4.738281 5.945312 4.59375 5.46875 C 4.445312 5 4.503906 4.503906 4.765625 3.984375 L 7.765625 -1.9375 L 0 -16.953125 C -0.238281 -17.472656 -0.269531 -17.96875 -0.09375 -18.4375 C 0.0703125 -18.914062 0.351562 -19.304688 0.75 -19.609375 C 1.144531 -19.910156 1.578125 -20.0625 2.046875 -20.0625 C 2.472656 -20.0625 2.878906 -19.929688 3.265625 -19.671875 C 3.660156 -19.410156 3.953125 -19.066406 4.140625 -18.640625 L 10.203125 -6.78125 L 16.28125 -18.6875 C 16.46875 -19.101562 16.742188 -19.4375 17.109375 -19.6875 C 17.472656 -19.9375 17.894531 -20.0625 18.375 -20.0625 Z M 18.375 -20.0625 "/></g></g></g><g fill="#373643" fill-opacity="1"><g transform="translate(41.246578, 124.117522)"><g><path d="M 8.984375 -6.875 C 9.753906 -6.875 10.378906 -6.625 10.859375 -6.125 C 11.347656 -5.632812 11.59375 -4.90625 11.59375 -3.9375 L 11.59375 0 L 11.046875 0 L 11.046875 -3.90625 C 11.046875 -4.707031 10.851562 -5.320312 10.46875 -5.75 C 10.09375 -6.175781 9.566406 -6.390625 8.890625 -6.390625 C 8.203125 -6.390625 7.644531 -6.148438 7.21875 -5.671875 C 6.800781 -5.191406 6.59375 -4.492188 6.59375 -3.578125 L 6.59375 0 L 6.046875 0 L 6.046875 -3.90625 C 6.046875 -4.707031 5.851562 -5.320312 5.46875 -5.75 C 5.082031 -6.175781 4.554688 -6.390625 3.890625 -6.390625 C 3.191406 -6.390625 2.628906 -6.148438 2.203125 -5.671875 C 1.785156 -5.191406 1.578125 -4.492188 1.578125 -3.578125 L 1.578125 0 L 1.015625 0 L 1.015625 -6.734375 L 1.578125 -6.734375 L 1.578125 -5.265625 C 1.765625 -5.796875 2.070312 -6.195312 2.5 -6.46875 C 2.925781 -6.738281 3.414062 -6.875 3.96875 -6.875 C 4.582031 -6.875 5.109375 -6.710938 5.546875 -6.390625 C 5.992188 -6.078125 6.300781 -5.609375 6.46875 -4.984375 C 6.625 -5.609375 6.925781 -6.078125 7.375 -6.390625 C 7.832031 -6.710938 8.367188 -6.875 8.984375 -6.875 Z M 8.984375 -6.875 "/></g></g></g><g fill="#373643" fill-opacity="1"><g transform="translate(53.33858, 124.117522)"><g><path d="M 0.671875 -3.375 C 0.671875 -4.070312 0.804688 -4.679688 1.078125 -5.203125 C 1.359375 -5.722656 1.742188 -6.125 2.234375 -6.40625 C 2.734375 -6.6875 3.296875 -6.828125 3.921875 -6.828125 C 4.628906 -6.828125 5.226562 -6.648438 5.71875 -6.296875 C 6.21875 -5.953125 6.570312 -5.507812 6.78125 -4.96875 L 6.78125 -6.734375 L 7.328125 -6.734375 L 7.328125 0 L 6.78125 0 L 6.78125 -1.78125 C 6.570312 -1.226562 6.21875 -0.773438 5.71875 -0.421875 C 5.21875 -0.078125 4.617188 0.09375 3.921875 0.09375 C 3.296875 0.09375 2.734375 -0.046875 2.234375 -0.328125 C 1.742188 -0.609375 1.359375 -1.007812 1.078125 -1.53125 C 0.804688 -2.0625 0.671875 -2.675781 0.671875 -3.375 Z M 6.78125 -3.375 C 6.78125 -3.957031 6.65625 -4.472656 6.40625 -4.921875 C 6.164062 -5.378906 5.832031 -5.726562 5.40625 -5.96875 C 4.988281 -6.21875 4.519531 -6.34375 4 -6.34375 C 3.445312 -6.34375 2.960938 -6.222656 2.546875 -5.984375 C 2.140625 -5.742188 1.816406 -5.398438 1.578125 -4.953125 C 1.347656 -4.515625 1.234375 -3.988281 1.234375 -3.375 C 1.234375 -2.757812 1.347656 -2.226562 1.578125 -1.78125 C 1.816406 -1.332031 2.144531 -0.988281 2.5625 -0.75 C 2.976562 -0.507812 3.457031 -0.390625 4 -0.390625 C 4.519531 -0.390625 4.988281 -0.507812 5.40625 -0.75 C 5.832031 -1 6.164062 -1.347656 6.40625 -1.796875 C 6.65625 -2.253906 6.78125 -2.78125 6.78125 -3.375 Z M 6.78125 -3.375 "/></g></g></g><g fill="#373643" fill-opacity="1"><g transform="translate(61.213845, 124.117522)"><g><path d="M 4.0625 -6.875 C 4.863281 -6.875 5.515625 -6.625 6.015625 -6.125 C 6.523438 -5.632812 6.78125 -4.90625 6.78125 -3.9375 L 6.78125 0 L 6.234375 0 L 6.234375 -3.90625 C 6.234375 -4.707031 6.03125 -5.320312 5.625 -5.75 C 5.21875 -6.175781 4.664062 -6.390625 3.96875 -6.390625 C 3.238281 -6.390625 2.65625 -6.15625 2.21875 -5.6875 C 1.789062 -5.226562 1.578125 -4.546875 1.578125 -3.640625 L 1.578125 0 L 1.015625 0 L 1.015625 -6.734375 L 1.578125 -6.734375 L 1.578125 -5.3125 C 1.765625 -5.8125 2.078125 -6.195312 2.515625 -6.46875 C 2.960938 -6.738281 3.476562 -6.875 4.0625 -6.875 Z M 4.0625 -6.875 "/></g></g></g><g fill="#373643" fill-opacity="1"><g transform="translate(68.469001, 124.117522)"><g><path d="M 0.671875 -3.375 C 0.671875 -4.070312 0.804688 -4.679688 1.078125 -5.203125 C 1.359375 -5.722656 1.742188 -6.125 2.234375 -6.40625 C 2.734375 -6.6875 3.296875 -6.828125 3.921875 -6.828125 C 4.628906 -6.828125 5.226562 -6.648438 5.71875 -6.296875 C 6.21875 -5.953125 6.570312 -5.507812 6.78125 -4.96875 L 6.78125 -6.734375 L 7.328125 -6.734375 L 7.328125 0 L 6.78125 0 L 6.78125 -1.78125 C 6.570312 -1.226562 6.21875 -0.773438 5.71875 -0.421875 C 5.21875 -0.078125 4.617188 0.09375 3.921875 0.09375 C 3.296875 0.09375 2.734375 -0.046875 2.234375 -0.328125 C 1.742188 -0.609375 1.359375 -1.007812 1.078125 -1.53125 C 0.804688 -2.0625 0.671875 -2.675781 0.671875 -3.375 Z M 6.78125 -3.375 C 6.78125 -3.957031 6.65625 -4.472656 6.40625 -4.921875 C 6.164062 -5.378906 5.832031 -5.726562 5.40625 -5.96875 C 4.988281 -6.21875 4.519531 -6.34375 4 -6.34375 C 3.445312 -6.34375 2.960938 -6.222656 2.546875 -5.984375 C 2.140625 -5.742188 1.816406 -5.398438 1.578125 -4.953125 C 1.347656 -4.515625 1.234375 -3.988281 1.234375 -3.375 C 1.234375 -2.757812 1.347656 -2.226562 1.578125 -1.78125 C 1.816406 -1.332031 2.144531 -0.988281 2.5625 -0.75 C 2.976562 -0.507812 3.457031 -0.390625 4 -0.390625 C 4.519531 -0.390625 4.988281 -0.507812 5.40625 -0.75 C 5.832031 -1 6.164062 -1.347656 6.40625 -1.796875 C 6.65625 -2.253906 6.78125 -2.78125 6.78125 -3.375 Z M 6.78125 -3.375 "/></g></g></g><g fill="#373643" fill-opacity="1"><g transform="translate(76.344265, 124.117522)"><g><path d="M 3.921875 -6.828125 C 4.628906 -6.828125 5.226562 -6.65625 5.71875 -6.3125 C 6.21875 -5.96875 6.570312 -5.523438 6.78125 -4.984375 L 6.78125 -6.734375 L 7.328125 -6.734375 L 7.328125 0.203125 C 7.328125 0.828125 7.191406 1.375 6.921875 1.84375 C 6.648438 2.3125 6.28125 2.671875 5.8125 2.921875 C 5.351562 3.171875 4.835938 3.296875 4.265625 3.296875 C 3.421875 3.296875 2.722656 3.09375 2.171875 2.6875 C 1.617188 2.28125 1.253906 1.734375 1.078125 1.046875 L 1.640625 1.046875 C 1.804688 1.585938 2.113281 2.015625 2.5625 2.328125 C 3.019531 2.648438 3.585938 2.8125 4.265625 2.8125 C 4.734375 2.8125 5.15625 2.707031 5.53125 2.5 C 5.914062 2.289062 6.21875 1.988281 6.4375 1.59375 C 6.664062 1.195312 6.78125 0.734375 6.78125 0.203125 L 6.78125 -1.765625 C 6.570312 -1.222656 6.21875 -0.773438 5.71875 -0.421875 C 5.21875 -0.078125 4.617188 0.09375 3.921875 0.09375 C 3.296875 0.09375 2.734375 -0.046875 2.234375 -0.328125 C 1.742188 -0.609375 1.359375 -1.007812 1.078125 -1.53125 C 0.804688 -2.0625 0.671875 -2.675781 0.671875 -3.375 C 0.671875 -4.070312 0.804688 -4.679688 1.078125 -5.203125 C 1.359375 -5.722656 1.742188 -6.125 2.234375 -6.40625 C 2.734375 -6.6875 3.296875 -6.828125 3.921875 -6.828125 Z M 6.78125 -3.375 C 6.78125 -3.957031 6.65625 -4.472656 6.40625 -4.921875 C 6.164062 -5.378906 5.832031 -5.726562 5.40625 -5.96875 C 4.988281 -6.21875 4.519531 -6.34375 4 -6.34375 C 3.445312 -6.34375 2.960938 -6.222656 2.546875 -5.984375 C 2.140625 -5.742188 1.816406 -5.398438 1.578125 -4.953125 C 1.347656 -4.515625 1.234375 -3.988281 1.234375 -3.375 C 1.234375 -2.757812 1.347656 -2.226562 1.578125 -1.78125 C 1.816406 -1.332031 2.144531 -0.988281 2.5625 -0.75 C 2.976562 -0.507812 3.457031 -0.390625 4 -0.390625 C 4.519531 -0.390625 4.988281 -0.507812 5.40625 -0.75 C 5.832031 -1 6.164062 -1.347656 6.40625 -1.796875 C 6.65625 -2.253906 6.78125 -2.78125 6.78125 -3.375 Z M 6.78125 -3.375 "/></g></g></g><g fill="#373643" fill-opacity="1"><g transform="translate(84.219528, 124.117522)"><g><path d="M 7.078125 -3.828125 C 7.078125 -3.523438 7.070312 -3.300781 7.0625 -3.15625 L 1.234375 -3.15625 C 1.253906 -2.550781 1.390625 -2.039062 1.640625 -1.625 C 1.890625 -1.207031 2.210938 -0.894531 2.609375 -0.6875 C 3.015625 -0.488281 3.457031 -0.390625 3.9375 -0.390625 C 4.601562 -0.390625 5.160156 -0.550781 5.609375 -0.875 C 6.054688 -1.195312 6.335938 -1.640625 6.453125 -2.203125 L 7.03125 -2.203125 C 6.894531 -1.515625 6.554688 -0.957031 6.015625 -0.53125 C 5.472656 -0.113281 4.78125 0.09375 3.9375 0.09375 C 3.3125 0.09375 2.75 -0.046875 2.25 -0.328125 C 1.757812 -0.609375 1.375 -1.007812 1.09375 -1.53125 C 0.8125 -2.050781 0.671875 -2.664062 0.671875 -3.375 C 0.671875 -4.070312 0.804688 -4.679688 1.078125 -5.203125 C 1.359375 -5.734375 1.742188 -6.132812 2.234375 -6.40625 C 2.734375 -6.6875 3.300781 -6.828125 3.9375 -6.828125 C 4.582031 -6.828125 5.144531 -6.6875 5.625 -6.40625 C 6.101562 -6.132812 6.460938 -5.765625 6.703125 -5.296875 C 6.953125 -4.835938 7.078125 -4.347656 7.078125 -3.828125 Z M 6.53125 -3.609375 C 6.550781 -4.203125 6.441406 -4.707031 6.203125 -5.125 C 5.972656 -5.539062 5.65625 -5.847656 5.25 -6.046875 C 4.84375 -6.253906 4.40625 -6.359375 3.9375 -6.359375 C 3.457031 -6.359375 3.015625 -6.253906 2.609375 -6.046875 C 2.210938 -5.847656 1.890625 -5.539062 1.640625 -5.125 C 1.390625 -4.707031 1.253906 -4.203125 1.234375 -3.609375 Z M 6.53125 -3.609375 "/></g></g></g><g fill="#373643" fill-opacity="1"><g transform="translate(91.499485, 124.117522)"><g/></g></g><g fill="#373643" fill-opacity="1"><g transform="translate(94.525491, 124.117522)"><g><path d="M 6.28125 -6.734375 L 2.359375 3.15625 L 1.78125 3.15625 L 3.046875 0 L 0.203125 -6.734375 L 0.8125 -6.734375 L 3.34375 -0.625 L 5.703125 -6.734375 Z M 6.28125 -6.734375 "/></g></g></g><g fill="#373643" fill-opacity="1"><g transform="translate(100.552826, 124.117522)"><g><path d="M 3.984375 0.09375 C 3.359375 0.09375 2.789062 -0.046875 2.28125 -0.328125 C 1.78125 -0.609375 1.382812 -1.007812 1.09375 -1.53125 C 0.8125 -2.050781 0.671875 -2.664062 0.671875 -3.375 C 0.671875 -4.070312 0.8125 -4.679688 1.09375 -5.203125 C 1.382812 -5.734375 1.785156 -6.132812 2.296875 -6.40625 C 2.804688 -6.6875 3.375 -6.828125 4 -6.828125 C 4.632812 -6.828125 5.203125 -6.6875 5.703125 -6.40625 C 6.210938 -6.132812 6.609375 -5.734375 6.890625 -5.203125 C 7.171875 -4.679688 7.3125 -4.070312 7.3125 -3.375 C 7.3125 -2.664062 7.164062 -2.050781 6.875 -1.53125 C 6.59375 -1.007812 6.195312 -0.609375 5.6875 -0.328125 C 5.175781 -0.046875 4.609375 0.09375 3.984375 0.09375 Z M 3.984375 -0.390625 C 4.472656 -0.390625 4.929688 -0.5 5.359375 -0.71875 C 5.785156 -0.9375 6.125 -1.269531 6.375 -1.71875 C 6.632812 -2.164062 6.765625 -2.71875 6.765625 -3.375 C 6.765625 -4.019531 6.632812 -4.566406 6.375 -5.015625 C 6.125 -5.460938 5.785156 -5.796875 5.359375 -6.015625 C 4.941406 -6.234375 4.488281 -6.34375 4 -6.34375 C 3.507812 -6.34375 3.054688 -6.234375 2.640625 -6.015625 C 2.222656 -5.796875 1.882812 -5.460938 1.625 -5.015625 C 1.363281 -4.566406 1.234375 -4.019531 1.234375 -3.375 C 1.234375 -2.71875 1.359375 -2.164062 1.609375 -1.71875 C 1.867188 -1.269531 2.207031 -0.9375 2.625 -0.71875 C 3.039062 -0.5 3.492188 -0.390625 3.984375 -0.390625 Z M 3.984375 -0.390625 "/></g></g></g><g fill="#373643" fill-opacity="1"><g transform="translate(108.080821, 124.117522)"><g><path d="M 6.71875 -6.734375 L 6.71875 0 L 6.15625 0 L 6.15625 -1.46875 C 5.96875 -0.945312 5.648438 -0.550781 5.203125 -0.28125 C 4.765625 -0.0195312 4.257812 0.109375 3.6875 0.109375 C 2.882812 0.109375 2.226562 -0.132812 1.71875 -0.625 C 1.207031 -1.113281 0.953125 -1.84375 0.953125 -2.8125 L 0.953125 -6.734375 L 1.5 -6.734375 L 1.5 -2.859375 C 1.5 -2.054688 1.703125 -1.441406 2.109375 -1.015625 C 2.515625 -0.585938 3.066406 -0.375 3.765625 -0.375 C 4.484375 -0.375 5.0625 -0.601562 5.5 -1.0625 C 5.9375 -1.53125 6.15625 -2.21875 6.15625 -3.125 L 6.15625 -6.734375 Z M 6.71875 -6.734375 "/></g></g></g><g fill="#373643" fill-opacity="1"><g transform="translate(115.335975, 124.117522)"><g><path d="M 1.578125 -5.34375 C 1.742188 -5.84375 2.035156 -6.222656 2.453125 -6.484375 C 2.878906 -6.742188 3.414062 -6.875 4.0625 -6.875 L 4.0625 -6.296875 L 3.890625 -6.296875 C 3.222656 -6.296875 2.671875 -6.101562 2.234375 -5.71875 C 1.796875 -5.34375 1.578125 -4.734375 1.578125 -3.890625 L 1.578125 0 L 1.015625 0 L 1.015625 -6.734375 L 1.578125 -6.734375 Z M 1.578125 -5.34375 "/></g></g></g><g fill="#373643" fill-opacity="1"><g transform="translate(119.205327, 124.117522)"><g/></g></g><g fill="#373643" fill-opacity="1"><g transform="translate(122.231333, 124.117522)"><g><path d="M 1.84375 -6.25 L 1.84375 -1.796875 C 1.84375 -1.296875 1.929688 -0.953125 2.109375 -0.765625 C 2.296875 -0.585938 2.625 -0.5 3.09375 -0.5 L 3.84375 -0.5 L 3.84375 0 L 3 0 C 2.414062 0 1.984375 -0.132812 1.703125 -0.40625 C 1.429688 -0.6875 1.296875 -1.148438 1.296875 -1.796875 L 1.296875 -6.25 L 0.265625 -6.25 L 0.265625 -6.734375 L 1.296875 -6.734375 L 1.296875 -8.453125 L 1.84375 -8.453125 L 1.84375 -6.734375 L 3.84375 -6.734375 L 3.84375 -6.25 Z M 1.84375 -6.25 "/></g></g></g><g fill="#373643" fill-opacity="1"><g transform="translate(126.063485, 124.117522)"><g><path d="M 0.671875 -3.375 C 0.671875 -4.070312 0.804688 -4.679688 1.078125 -5.203125 C 1.359375 -5.722656 1.742188 -6.125 2.234375 -6.40625 C 2.734375 -6.6875 3.296875 -6.828125 3.921875 -6.828125 C 4.628906 -6.828125 5.226562 -6.648438 5.71875 -6.296875 C 6.21875 -5.953125 6.570312 -5.507812 6.78125 -4.96875 L 6.78125 -6.734375 L 7.328125 -6.734375 L 7.328125 0 L 6.78125 0 L 6.78125 -1.78125 C 6.570312 -1.226562 6.21875 -0.773438 5.71875 -0.421875 C 5.21875 -0.078125 4.617188 0.09375 3.921875 0.09375 C 3.296875 0.09375 2.734375 -0.046875 2.234375 -0.328125 C 1.742188 -0.609375 1.359375 -1.007812 1.078125 -1.53125 C 0.804688 -2.0625 0.671875 -2.675781 0.671875 -3.375 Z M 6.78125 -3.375 C 6.78125 -3.957031 6.65625 -4.472656 6.40625 -4.921875 C 6.164062 -5.378906 5.832031 -5.726562 5.40625 -5.96875 C 4.988281 -6.21875 4.519531 -6.34375 4 -6.34375 C 3.445312 -6.34375 2.960938 -6.222656 2.546875 -5.984375 C 2.140625 -5.742188 1.816406 -5.398438 1.578125 -4.953125 C 1.347656 -4.515625 1.234375 -3.988281 1.234375 -3.375 C 1.234375 -2.757812 1.347656 -2.226562 1.578125 -1.78125 C 1.816406 -1.332031 2.144531 -0.988281 2.5625 -0.75 C 2.976562 -0.507812 3.457031 -0.390625 4 -0.390625 C 4.519531 -0.390625 4.988281 -0.507812 5.40625 -0.75 C 5.832031 -1 6.164062 -1.347656 6.40625 -1.796875 C 6.65625 -2.253906 6.78125 -2.78125 6.78125 -3.375 Z M 6.78125 -3.375 "/></g></g></g><g fill="#373643" fill-opacity="1"><g transform="translate(133.938749, 124.117522)"><g><path d="M 3.265625 0.09375 C 2.515625 0.09375 1.898438 -0.0664062 1.421875 -0.390625 C 0.941406 -0.722656 0.675781 -1.195312 0.625 -1.8125 L 1.1875 -1.8125 C 1.226562 -1.375 1.425781 -1.023438 1.78125 -0.765625 C 2.144531 -0.515625 2.640625 -0.390625 3.265625 -0.390625 C 3.773438 -0.390625 4.179688 -0.519531 4.484375 -0.78125 C 4.785156 -1.039062 4.9375 -1.359375 4.9375 -1.734375 C 4.9375 -2.003906 4.851562 -2.222656 4.6875 -2.390625 C 4.53125 -2.554688 4.332031 -2.6875 4.09375 -2.78125 C 3.851562 -2.875 3.523438 -2.972656 3.109375 -3.078125 C 2.617188 -3.210938 2.21875 -3.34375 1.90625 -3.46875 C 1.601562 -3.59375 1.34375 -3.78125 1.125 -4.03125 C 0.914062 -4.289062 0.8125 -4.640625 0.8125 -5.078125 C 0.8125 -5.390625 0.90625 -5.679688 1.09375 -5.953125 C 1.28125 -6.222656 1.539062 -6.4375 1.875 -6.59375 C 2.21875 -6.75 2.609375 -6.828125 3.046875 -6.828125 C 3.742188 -6.828125 4.304688 -6.648438 4.734375 -6.296875 C 5.171875 -5.941406 5.410156 -5.457031 5.453125 -4.84375 L 4.890625 -4.84375 C 4.859375 -5.289062 4.679688 -5.65625 4.359375 -5.9375 C 4.046875 -6.21875 3.601562 -6.359375 3.03125 -6.359375 C 2.550781 -6.359375 2.148438 -6.234375 1.828125 -5.984375 C 1.515625 -5.734375 1.359375 -5.429688 1.359375 -5.078125 C 1.359375 -4.765625 1.445312 -4.507812 1.625 -4.3125 C 1.800781 -4.113281 2.019531 -3.960938 2.28125 -3.859375 C 2.550781 -3.753906 2.898438 -3.644531 3.328125 -3.53125 C 3.796875 -3.40625 4.171875 -3.28125 4.453125 -3.15625 C 4.742188 -3.039062 4.988281 -2.867188 5.1875 -2.640625 C 5.382812 -2.421875 5.484375 -2.117188 5.484375 -1.734375 C 5.484375 -1.390625 5.382812 -1.078125 5.1875 -0.796875 C 5 -0.515625 4.734375 -0.296875 4.390625 -0.140625 C 4.054688 0.015625 3.679688 0.09375 3.265625 0.09375 Z M 3.265625 0.09375 "/></g></g></g><g fill="#373643" fill-opacity="1"><g transform="translate(139.631226, 124.117522)"><g><path d="M 4.515625 0 L 1.578125 -3.09375 L 1.578125 0 L 1.015625 0 L 1.015625 -9.1875 L 1.578125 -9.1875 L 1.578125 -3.6875 L 4.46875 -6.734375 L 5.25 -6.734375 L 1.984375 -3.390625 L 5.28125 0 Z M 4.515625 0 "/></g></g></g><g fill="#373643" fill-opacity="1"><g transform="translate(144.579569, 124.117522)"><g><path d="M 3.265625 0.09375 C 2.515625 0.09375 1.898438 -0.0664062 1.421875 -0.390625 C 0.941406 -0.722656 0.675781 -1.195312 0.625 -1.8125 L 1.1875 -1.8125 C 1.226562 -1.375 1.425781 -1.023438 1.78125 -0.765625 C 2.144531 -0.515625 2.640625 -0.390625 3.265625 -0.390625 C 3.773438 -0.390625 4.179688 -0.519531 4.484375 -0.78125 C 4.785156 -1.039062 4.9375 -1.359375 4.9375 -1.734375 C 4.9375 -2.003906 4.851562 -2.222656 4.6875 -2.390625 C 4.53125 -2.554688 4.332031 -2.6875 4.09375 -2.78125 C 3.851562 -2.875 3.523438 -2.972656 3.109375 -3.078125 C 2.617188 -3.210938 2.21875 -3.34375 1.90625 -3.46875 C 1.601562 -3.59375 1.34375 -3.78125 1.125 -4.03125 C 0.914062 -4.289062 0.8125 -4.640625 0.8125 -5.078125 C 0.8125 -5.390625 0.90625 -5.679688 1.09375 -5.953125 C 1.28125 -6.222656 1.539062 -6.4375 1.875 -6.59375 C 2.21875 -6.75 2.609375 -6.828125 3.046875 -6.828125 C 3.742188 -6.828125 4.304688 -6.648438 4.734375 -6.296875 C 5.171875 -5.941406 5.410156 -5.457031 5.453125 -4.84375 L 4.890625 -4.84375 C 4.859375 -5.289062 4.679688 -5.65625 4.359375 -5.9375 C 4.046875 -6.21875 3.601562 -6.359375 3.03125 -6.359375 C 2.550781 -6.359375 2.148438 -6.234375 1.828125 -5.984375 C 1.515625 -5.734375 1.359375 -5.429688 1.359375 -5.078125 C 1.359375 -4.765625 1.445312 -4.507812 1.625 -4.3125 C 1.800781 -4.113281 2.019531 -3.960938 2.28125 -3.859375 C 2.550781 -3.753906 2.898438 -3.644531 3.328125 -3.53125 C 3.796875 -3.40625 4.171875 -3.28125 4.453125 -3.15625 C 4.742188 -3.039062 4.988281 -2.867188 5.1875 -2.640625 C 5.382812 -2.421875 5.484375 -2.117188 5.484375 -1.734375 C 5.484375 -1.390625 5.382812 -1.078125 5.1875 -0.796875 C 5 -0.515625 4.734375 -0.296875 4.390625 -0.140625 C 4.054688 0.015625 3.679688 0.09375 3.265625 0.09375 Z M 3.265625 0.09375 "/></g></g></g></svg>